Coordinates
version=1
nRows=12
nColumns=24
inDegrees=yes

Units are S.I. units (second, meters, Newtons, ...)
Angles are in degrees.

endheader
time	pelvis_tilt	pelvis_list	pelvis_rotation	pelvis_tx	pelvis_ty	pelvis_tz	hip_flexion_r	hip_adduction_r	hip_rotation_r	knee_angle_r	ankle_angle_r	subtalar_angle_r	mtp_angle_r	hip_flexion_l	hip_adduction_l	hip_rotation_l	knee_angle_l	ankle_angle_l	subtalar_angle_l	mtp_angle_l	lumbar_extension	lumbar_bending	lumbar_rotation
      1.06650000	      2.88350007	     -3.29170664	      5.78702311	      0.40181900	      1.04940488	      0.31714405	      2.87305223	     10.09576171	     -1.92816425	     -9.98180101	      0.31126815	    -12.35453383	      6.36853961	     10.84715015	     -6.09372569	     -0.99827675	    -53.07312746	      5.59737426	      4.22215296	      0.66051830	     -9.65993114	      2.93671611	     -4.52741104
      1.07066667	      2.90874670	     -3.21878951	      5.61857620	      0.40643022	      1.04981370	      0.31773465	      2.41114109	     10.07506728	     -1.77419988	     -9.71278754	      0.38894316	    -12.25300729	      6.30938854	     11.23343809	     -5.99690298	     -1.07928598	    -52.44757732	      6.03122888	      4.00841469	      0.57384159	     -9.72172139	      2.79116835	     -4.36868600
      1.07483333	      2.89669801	     -3.14440050	      5.45055720	      0.41103281	      1.05013459	      0.31831437	      2.00080730	     10.04530873	     -1.63325205	     -9.46495139	      0.45655258	    -12.15407104	      6.28630069	     11.65091240	     -5.88998562	     -1.14920543	    -51.78905532	      6.46988877	      3.78207665	      0.54208721	     -9.74614555	      2.64568219	     -4.30570348
      1.07900000	      2.92817587	     -3.04690532	      5.27057855	      0.41561979	      1.05052761	      0.31889688	      1.53950536	      9.99359512	     -1.45569622	     -9.21851990	      0.55281331	    -12.05868229	      6.24690406	     11.98883550	     -5.75611644	     -1.21685213	    -51.05484093	      6.83416633	      3.52830146	      0.48282684	     -9.83762006	      2.49739068	     -4.15170960
      1.08316667	      2.96451032	     -2.96540905	      5.10775205	      0.42021280	      1.05088336	      0.31946710	      1.06669141	      9.95832259	     -1.29256247	     -8.95049048	      0.64295716	    -11.96629088	      6.18929404	     12.31874882	     -5.64223548	     -1.27222296	    -50.29292945	      7.15982840	      3.26349689	      0.39694513	     -9.91465008	      2.34673982	     -3.97386118
      1.08733333	      2.97342425	     -2.88570379	      4.94679251	      0.42480776	      1.05117103	      0.32002792	      0.62946175	      9.91975040	     -1.13570913	     -8.69299559	      0.72935516	    -11.87919870	      6.11850632	     12.66734266	     -5.52446431	     -1.31733029	    -49.49547235	      7.45884833	      2.98739734	      0.29118802	     -9.95585383	      2.19217129	     -3.82021511
      1.09150000	      2.94167354	     -2.81663116	      4.78992162	      0.42938749	      1.05133765	      0.32058911	      0.24889586	      9.88716353	     -0.99016665	     -8.45541526	      0.81321113	    -11.79330163	      6.09150447	     13.05917242	     -5.41790467	     -1.36101511	    -48.68506567	      7.80024949	      2.74635049	      0.24988380	     -9.95647756	      2.04382681	     -3.76474483
      1.09566667	      2.95170600	     -2.73614417	      4.62951054	      0.43397199	      1.05156661	      0.32114279	     -0.18293774	      9.84440866	     -0.82929629	     -8.21052471	      0.91318159	    -11.71305375	      6.05822893	     13.37849105	     -5.29626340	     -1.39603875	    -47.81008745	      8.05192119	      2.45145981	      0.19513131	    -10.01100736	      1.88586334	     -3.65843622
      1.09983333	      2.95857437	     -2.64857664	      4.46346808	      0.43853080	      1.05176316	      0.32166376	     -0.59581917	      9.78835374	     -0.66629585	     -7.99897350	      1.01409810	    -11.65462051	      6.00470416	     13.67943061	     -5.15390537	     -1.40619456	    -46.87655478	      8.21632432	      2.11590607	      0.10669749	    -10.06475881	      1.75620448	     -3.49771356
      1.10400000	      2.96817427	     -2.58477496	      4.32217563	      0.44311880	      1.05192698	      0.32216322	     -1.02803046	      9.75822126	     -0.51771054	     -7.74498920	      1.10988094	    -11.58403799	      5.92235262	     13.97730221	     -5.04036492	     -1.40109187	    -45.92665414	      8.35725466	      1.79193480	     -0.02697547	    -10.09942660	      1.62954960	     -3.33205362
      1.10816667	      2.94452077	     -2.50590907	      4.15787940	      0.44768810	      1.05201633	      0.32268566	     -1.40105043	      9.70621991	     -0.35420850	     -7.54401567	      1.21307363	    -11.52410592	      5.86843040	     14.29044916	     -4.90879255	     -1.40943677	    -44.93700372	      8.51326000	      1.48197990	     -0.11957724	    -10.11886949	      1.47974361	     -3.24684957
      1.11233333	      2.94289735	     -2.44974353	      4.02603850	      0.45227180	      1.05209320	      0.32314639	     -1.81341214	      9.67899104	     -0.21504129	     -7.30135152	      1.31336629	    -11.46291767	      5.78586076	     14.57676506	     -4.79418657	     -1.37464378	    -43.91810543	      8.57088504	      1.11855058	     -0.26241276	    -10.14008913	      1.36921285	     -3.10938010
